<?xml version="1.0" standalone="no"?>
<!DOCTYPE svg PUBLIC "-//W3C//DTD SVG 20010904//EN"
 "http://www.w3.org/TR/2001/REC-SVG-20010904/DTD/svg10.dtd">
<svg version="1.0" xmlns="http://www.w3.org/2000/svg"
 width="208.000000pt" height="208.000000pt" viewBox="0 0 208.000000 208.000000"
 preserveAspectRatio="xMidYMid meet">
<metadata>
Created by potrace 1.14, written by Peter Selinger 2001-2017
</metadata>
<g transform="translate(0.000000,208.000000) scale(0.100000,-0.100000)"
fill="#000000" stroke="none">
<path d="M590 1826 l-445 -252 -3 -521 -2 -521 450 -266 450 -265 447 252 448
253 3 521 2 521 -450 266 c-248 146 -452 266 -453 265 -1 0 -202 -114 -447
-253z m698 -299 c9 -11 -8 -38 -88 -133 -55 -65 -100 -122 -100 -125 0 -3 35
-43 78 -88 l77 -82 120 137 120 137 3 -151 c1 -84 1 -221 0 -304 l-3 -153
-114 108 c-63 59 -118 107 -122 107 -4 0 -46 -46 -93 -102 l-86 -102 0 -158 0
-158 -45 0 -44 0 6 153 6 153 -92 107 c-50 59 -94 107 -98 107 -3 0 -56 -48
-117 -107 l-111 -108 -3 152 c-1 84 -1 221 0 304 l3 151 104 -121 c56 -66 110
-126 118 -132 12 -10 28 1 94 67 43 43 79 83 79 89 0 5 -45 61 -100 124 l-99
114 23 18 c13 11 28 19 33 18 4 0 51 -49 102 -109 61 -70 99 -106 105 -100 6
4 54 56 106 113 97 108 106 113 138 74z"/>
<path d="M951 1123 c-79 -86 -80 -87 -63 -108 11 -11 47 -54 82 -95 35 -41 67
-75 70 -75 4 0 44 45 89 99 l82 100 -83 83 c-45 46 -86 83 -89 83 -4 0 -44
-39 -88 -87z"/>
<path d="M660 1055 l0 -109 50 49 c28 27 50 52 50 55 0 3 -22 30 -50 60 l-49
55 -1 -110z"/>
<path d="M1357 1104 l-48 -57 48 -49 48 -49 3 50 c2 28 2 75 0 106 l-3 56 -48
-57z"/>
</g>
</svg>
